<svg aria-hidden="true" style="position:absolute;width:0;height:0;overflow:hidden" xmlns="http://www.w3.org/2000/svg">
  <defs>
    <symbol id="icon-burger" viewBox="0 0 44 27">
      <path d="M0 0h42.667v5.333h-42.667v-5.333zM0 13.333h42.667v5.333h-42.667v-5.333zM0 26.667h42.667v5.333h-42.667v-5.333z"></path>
    </symbol>
    <symbol id="icon-x" viewBox="0 0 32 32">
      <path d="M27.179 0.918l-11.315 11.312-11.312-11.312-3.771 3.771 11.312 11.312-11.312 11.312 3.771 3.771 11.312-11.312 11.315 11.312 3.771-3.771-11.312-11.312 11.312-11.312-3.771-3.771z"></path>
    </symbol>
    <symbol id="button-prev" viewBox="0 0 14 29">
      <path d="M13.2687 0.328977C13.4059 0.446544 13.5185 0.589992 13.6003 0.751121C13.682 0.912251 13.7311 1.0879 13.7449 1.26804C13.7587 1.44817 13.7369 1.62926 13.6806 1.80095C13.6244 1.97264 13.5349 2.13157 13.4172 2.26864L3.18538 14.2073L13.4172 26.146C13.5417 26.2819 13.6376 26.4415 13.6992 26.6153C13.7607 26.789 13.7868 26.9733 13.7757 27.1573C13.7646 27.3413 13.7166 27.5212 13.6346 27.6863C13.5526 27.8514 13.4382 27.9983 13.2983 28.1183C13.1584 28.2383 12.9958 28.329 12.8201 28.3848C12.6444 28.4407 12.4593 28.4608 12.2758 28.4437C12.0923 28.4266 11.914 28.3728 11.7517 28.2855C11.5894 28.1981 11.4463 28.0791 11.3309 27.9353L0.330875 15.102C0.117358 14.8528 0 14.5355 0 14.2073C0 13.8792 0.117358 13.5618 0.330875 13.3126L11.3309 0.479311C11.5683 0.202817 11.9057 0.0318674 12.2691 0.00402272C12.6324 -0.0238219 12.992 0.0937159 13.2687 0.330811" fill="currentColor" />
    </symbol>
    <symbol id="button-next" viewBox="0 0 14 29">
      <path d="M0.509368 0.328977C0.372192 0.446544 0.259531 0.589992 0.177821 0.751121C0.0961123 0.912251 0.046957 1.0879 0.0331659 1.26804C0.0193748 1.44817 0.0412188 1.62926 0.0974474 1.80095C0.153676 1.97264 0.243187 2.13157 0.360867 2.26864L10.5927 14.2073L0.360867 26.146C0.236378 26.2819 0.140493 26.4415 0.0789146 26.6153C0.0173349 26.789 -0.00868034 26.9733 0.0024128 27.1573C0.0135059 27.3413 0.0614824 27.5212 0.14349 27.6863C0.225496 27.8514 0.339861 27.9983 0.479781 28.1183C0.619701 28.2383 0.782322 28.329 0.957974 28.3848C1.13363 28.4407 1.31873 28.4608 1.50227 28.4437C1.68581 28.4266 1.86404 28.3728 2.02637 28.2855C2.1887 28.1981 2.33181 28.0791 2.4472 27.9353L13.4472 15.102C13.6607 14.8528 13.7781 14.5355 13.7781 14.2073C13.7781 13.8792 13.6607 13.5618 13.4472 13.3126L2.4472 0.479311C2.20981 0.202817 1.87237 0.0318674 1.50902 0.00402272C1.14566 -0.0238219 0.786113 0.0937159 0.509368 0.330811" fill="currentColor" />
    </symbol>
    <symbol id="icon-star" viewBox="0 0 32 32">
      <path d="M7.226 19.717l-2.384 10.323c-0.074 0.313-0.052 0.64 0.064 0.94s0.318 0.558 0.582 0.74c0.264 0.183 0.577 0.281 0.899 0.283s0.635-0.093 0.902-0.273l8.712-5.808 8.712 5.808c0.273 0.181 0.594 0.274 0.921 0.267s0.644-0.114 0.908-0.307c0.264-0.193 0.463-0.462 0.57-0.771s0.116-0.644 0.028-0.959l-2.926-10.24 7.258-6.531c0.232-0.209 0.399-0.482 0.477-0.785s0.068-0.622-0.033-0.918-0.285-0.556-0.532-0.749c-0.247-0.192-0.544-0.308-0.856-0.333l-9.122-0.726-3.947-8.738c-0.126-0.281-0.33-0.52-0.589-0.688s-0.56-0.257-0.868-0.257c-0.308 0-0.61 0.089-0.868 0.257s-0.463 0.407-0.589 0.688l-3.947 8.738-9.122 0.725c-0.306 0.024-0.599 0.136-0.844 0.323s-0.43 0.439-0.534 0.728c-0.104 0.289-0.123 0.602-0.055 0.902s0.223 0.573 0.443 0.788l6.742 6.571zM11.79 12.795c0.286-0.023 0.56-0.121 0.794-0.286s0.42-0.39 0.537-0.651l2.878-6.37 2.878 6.37c0.117 0.261 0.303 0.486 0.537 0.651s0.508 0.264 0.794 0.286l6.355 0.504-5.234 4.71c-0.454 0.41-0.635 1.040-0.469 1.629l2.005 7.016-5.978-3.986c-0.262-0.176-0.571-0.27-0.887-0.27s-0.625 0.094-0.887 0.27l-6.246 4.165 1.68-7.274c0.062-0.268 0.053-0.546-0.024-0.81s-0.221-0.503-0.418-0.694l-4.861-4.739 6.544-0.522z"></path>
    </symbol>
    <symbol id="icon-star-filler" viewBox="0 0 32 32">
      <path d="M7.226 19.717l-2.384 10.323c-0.074 0.313-0.052 0.64 0.064 0.94s0.318 0.558 0.582 0.74c0.264 0.183 0.577 0.281 0.899 0.283s0.635-0.093 0.902-0.273l8.712-5.808 8.712 5.808c0.273 0.181 0.594 0.274 0.921 0.267s0.644-0.114 0.908-0.307c0.264-0.193 0.463-0.462 0.57-0.771s0.116-0.644 0.028-0.959l-2.926-10.24 7.258-6.531c0.232-0.209 0.399-0.482 0.477-0.785s0.068-0.622-0.033-0.918-0.285-0.556-0.532-0.749c-0.247-0.192-0.544-0.308-0.856-0.333l-9.122-0.726-3.947-8.738c-0.126-0.281-0.33-0.52-0.589-0.688s-0.56-0.257-0.868-0.257c-0.308 0-0.61 0.089-0.868 0.257s-0.463 0.407-0.589 0.688l-3.947 8.738-9.122 0.725c-0.306 0.024-0.599 0.136-0.844 0.323s-0.43 0.439-0.534 0.728c-0.104 0.289-0.123 0.602-0.055 0.902s0.223 0.573 0.443 0.788l6.742 6.571z"></path>
    </symbol>
    <symbol id="faq-plus" viewBox="0 0 26 26">
      <path d="M14.6667 1.83333C14.6667 1.3471 14.4735 0.880788 14.1297 0.536971C13.7859 0.193155 13.3196 0 12.8333 0C12.3471 0 11.8808 0.193155 11.537 0.536971C11.1932 0.880788 11 1.3471 11 1.83333V11H1.83333C1.3471 11 0.880788 11.1932 0.536971 11.537C0.193155 11.8808 0 12.3471 0 12.8333C0 13.3196 0.193155 13.7859 0.536971 14.1297C0.880788 14.4735 1.3471 14.6667 1.83333 14.6667H11V23.8333C11 24.3196 11.1932 24.7859 11.537 25.1297C11.8808 25.4735 12.3471 25.6667 12.8333 25.6667C13.3196 25.6667 13.7859 25.4735 14.1297 25.1297C14.4735 24.7859 14.6667 24.3196 14.6667 23.8333V14.6667H23.8333C24.3196 14.6667 24.7859 14.4735 25.1297 14.1297C25.4735 13.7859 25.6667 13.3196 25.6667 12.8333C25.6667 12.3471 25.4735 11.8808 25.1297 11.537C24.7859 11.1932 24.3196 11 23.8333 11H14.6667V1.83333Z" fill="#FDFDFD"/>
    </symbol>
    <symbol id="faq-minus" viewBox="0 0 26 4">
      <path d="M0 1.83333C0 1.3471 0.193155 0.880788 0.536971 0.536971C0.880788 0.193155 1.3471 0 1.83333 0H23.8333C24.3196 0 24.7859 0.193155 25.1297 0.536971C25.4735 0.880788 25.6667 1.3471 25.6667 1.83333C25.6667 2.31956 25.4735 2.78588 25.1297 3.1297C24.7859 3.47351 24.3196 3.66667 23.8333 3.66667H1.83333C1.3471 3.66667 0.880788 3.47351 0.536971 3.1297C0.193155 2.78588 0 2.31956 0 1.83333Z"  />
    </symbol>
    <symbol id="back" viewBox="0 0 33 25">
      <path d="M0.536775 10.8858C0.193078 11.2296 0 11.6958 0 12.182C0 12.6681 0.193078 13.1343 0.536775 13.4781L10.9079 23.8493C11.2537 24.1833 11.7168 24.368 12.1975 24.3639C12.6782 24.3597 13.138 24.1669 13.4779 23.827C13.8179 23.4871 14.0107 23.0272 14.0148 22.5465C14.019 22.0658 13.8342 21.6027 13.5003 21.257L6.25861 14.0153H30.5374C31.0237 14.0153 31.49 13.8221 31.8338 13.4783C32.1776 13.1345 32.3708 12.6682 32.3708 12.182C32.3708 11.6957 32.1776 11.2294 31.8338 10.8856C31.49 10.5418 31.0237 10.3486 30.5374 10.3486H6.25861L13.5003 3.10697C13.8342 2.7612 14.019 2.2981 14.0148 1.8174C14.0107 1.33671 13.8179 0.876885 13.4779 0.536971C13.138 0.197056 12.6782 0.00424641 12.1975 6.93048e-05C11.7168 -0.0041078 11.2537 0.180682 10.9079 0.514638L0.536775 10.8858Z" fill="currentColor"/>
    </symbol>
  </defs>
</svg>
